<svg version="1.1" class="clearos-svg clearfoundation app-vendor-clearfoundation app-free app-category-server app-sub-category-print" viewBox="0 0 400 400" preserveAspectRatio="xMinYMin" xmlns="http://www.w3.org/2000/svg" xmlns:xlink= "http://www.w3.org/1999/xlink">
<path fill="#AA0707" d="M91.666,184.647"/>
<path fill="#AA0707" d="M123.245,247.805"/>
<path fill="#AA0707" d="M91.666,184.647"/>
<path fill="#AA0707" d="M123.245,247.805"/>
<g>
	<path fill="#686868" d="M314.928,180.759c0,18.127-14.721,32.839-32.838,32.839H118.409c-18.135,0-32.838-14.712-32.838-32.839
		v-55.928c30.786,0,184.717,0,229.357,0V180.759L314.928,180.759z"/>
	<path fill="#686868" d="M299.021,41.194c0-18.127-14.723-32.839-32.84-32.839H133.296c-18.127,0-32.839,14.712-32.839,32.839
		v65.164c30.786,0,153.923,0,198.58,0V41.194H299.021z"/>
	<path fill="#686868" d="M100.458,277.223v65.164c0,27.725,14.711,49.258,32.839,49.258h132.902
		c18.135,0,32.838-21.551,32.838-49.771v-64.651C254.381,277.223,131.245,277.223,100.458,277.223z M259.77,367.529H139.703v-15.906
		H259.77V367.529z M261.18,340.719H141.113v-15.904H261.18V340.719z"/>
	<g>
		<path fill="#686868" d="M364.186,123.026h-30.271v66.647c0,21.148-17.156,38.29-38.291,38.29H104.859
			c-21.134,0-38.274-17.142-38.274-38.29v-66.647H35.799c-18.127,0-32.838,14.713-32.838,32.839v135.467
			c0,24.115,32.325,60.547,67.729,60.547h14.663c-0.77-4.586-1.314-9.332-1.314-14.336v-75.938c35.893,0,179.402,0,231.417,0v75.361
			c0,5.211-0.578,10.15-1.379,14.912h15.23c35.404,0,67.73-36.432,67.73-60.547V155.865
			C397.023,137.739,382.305,123.026,364.186,123.026z"/>
	</g>
</g>
</svg>
